<?xml version="1.0" encoding="UTF-8" standalone="no"?>
<!-- Created with Inkscape (http://www.inkscape.org/) -->

<svg
   xmlns:dc="http://purl.org/dc/elements/1.1/"
   xmlns:cc="http://creativecommons.org/ns#"
   xmlns:rdf="http://www.w3.org/1999/02/22-rdf-syntax-ns#"
   xmlns:svg="http://www.w3.org/2000/svg"
   xmlns="http://www.w3.org/2000/svg"
   xmlns:sodipodi="http://sodipodi.sourceforge.net/DTD/sodipodi-0.dtd"
   xmlns:inkscape="http://www.inkscape.org/namespaces/inkscape"
   id="svg2985"
   version="1.1"
   inkscape:version="0.48.3.1 r9886"
   width="5636.5249"
   height="2556.3845"
   sodipodi:docname="New CD logo.svg"
   inkscape:export-filename="C:\Users\Lian Pin Koh\Dropbox\Drones\Drones-Serge\Logos and Diagrams\New CD Logo Feb 2014\New CD logo.png"
   inkscape:export-xdpi="180"
   inkscape:export-ydpi="180">
  <metadata
     id="metadata2991">
    <rdf:RDF>
      <cc:Work
         rdf:about="">
        <dc:format>image/svg+xml</dc:format>
        <dc:type
           rdf:resource="http://purl.org/dc/dcmitype/StillImage" />
        <dc:title />
      </cc:Work>
    </rdf:RDF>
  </metadata>
  <defs
     id="defs2989" />
  <sodipodi:namedview
     pagecolor="#ffffff"
     bordercolor="#666666"
     borderopacity="1"
     objecttolerance="10"
     gridtolerance="10"
     guidetolerance="10"
     inkscape:pageopacity="0"
     inkscape:pageshadow="2"
     inkscape:window-width="1920"
     inkscape:window-height="1005"
     id="namedview2987"
     showgrid="false"
     inkscape:zoom="0.14195169"
     inkscape:cx="1895.4135"
     inkscape:cy="1361.4695"
     inkscape:window-x="-9"
     inkscape:window-y="-9"
     inkscape:window-maximized="1"
     inkscape:current-layer="svg2985"
     fit-margin-top="100"
     fit-margin-left="100"
     fit-margin-right="100"
     fit-margin-bottom="100"
     inkscape:showpageshadow="false"
     showborder="true"
     showguides="true"
     inkscape:guide-bbox="true" />
  <path
     style="fill:#a7ac93"
     d="m 1493.6783,2049.6956 c -0.159,-0.1591 -6.0376,-0.5915 -13.061,-0.9591 -7.0237,-0.3675 -13.9546,-0.824 -15.4019,-1.0147 l -2.6315,-0.3466 -0.3351,-5.8737 c -0.2612,-4.5816 -0.1397,-6.0184 0.558,-6.531 0.6954,-0.5122 -1.0619,-2.103 -7.9497,-7.1963 -9.1598,-6.7732 -16.6966,-13.9145 -16.8398,-15.9562 -0.2606,-3.7101 -0.4387,-4.6501 -1.4093,-7.4344 -1.5637,-4.4859 -1.4061,-13.7101 0.3722,-21.7654 1.7884,-8.1013 1.7756,-20.663 -0.024,-19.9739 -6.4306,2.4676 -16.4873,3.0526 -24.7688,1.4406 -3.1666,-0.6163 -7.9777,-1.5245 -10.6911,-2.0183 -5.673,-1.0323 -14.7577,-5.1447 -20.7669,-9.4004 -6.0976,-4.3182 -16.7935,-14.0585 -24.0623,-21.9127 -7.5123,-8.1167 -22.8464,-25.7804 -22.8464,-26.3166 0,-0.1977 -1.9858,-3.0095 -4.4127,-6.2503 -2.6857,-3.5864 -15.6022,-17.2855 -33.001,-35.0005 -28.1062,-28.6172 -31.8098,-32.8879 -30.8009,-35.5175 0.2001,-0.5191 -1.108,-2.1998 -3.194,-4.1065 -1.9422,-1.7749 -6.1015,-5.9577 -9.2428,-9.2944 -5.7113,-6.0668 -5.7115,-6.0673 -5.7115,-9.4667 0,-1.8696 -0.4409,-5.0921 -0.9798,-7.1606 -0.6409,-2.4608 -0.7624,-3.9778 -0.3514,-4.3888 0.4109,-0.4111 -0.7103,-2.0875 -3.2442,-4.8501 -5.5917,-6.0962 -10.424,-13.216 -13.5916,-20.0259 -3.8481,-8.2729 -6.838,-11.8229 -12.2816,-14.5827 -2.4292,-1.2316 -4.5606,-2.3832 -4.7366,-2.5589 -0.1759,-0.176 -2.5787,-1.4666 -5.3398,-2.8682 -4.1772,-2.1205 -7.0456,-4.4592 -17.0855,-13.9304 -6.6361,-6.2602 -12.4378,-12.07 -12.8926,-12.9112 -0.4546,-0.8412 -2.6529,-3.9285 -4.8851,-6.8607 -7.1588,-9.405 -17.6668,-27.9711 -20.5607,-36.3286 -0.9357,-2.7019 -2.5968,-6.478 -3.6915,-8.3912 -3.359,-5.8709 -17.3694,-37.7453 -20.6481,-46.9751 -0.6249,-1.7592 -2.4321,-5.4466 -4.0159,-8.1941 -2.9983,-5.2015 -4.0258,-8.4722 -6.1237,-19.4988 -0.6891,-3.6201 -1.8385,-7.7062 -2.5546,-9.0801 -0.7161,-1.374 -2.0244,-5.6088 -2.907,-9.4112 -0.8824,-3.8022 -2.3505,-9.648 -3.2618,-12.9905 -1.6141,-5.9193 -1.6577,-6.5934 -1.6775,-25.9088 -0.024,-21.9592 -0.024,-22.0826 4.5233,-36.3355 1.4314,-4.5031 2.6026,-8.7545 2.6026,-9.4475 0,-0.6929 -2.4577,-4.0549 -5.4616,-7.471 -6.0606,-6.892 -8.0784,-10.4787 -9.6302,-17.116 -0.5758,-2.463 -1.3365,-5.5228 -1.6908,-6.7995 -0.967,-3.4867 -0.1711,-42.3607 1.007,-49.1766 0.5167,-2.9906 1.6908,-9.8998 2.6089,-15.3534 2.3507,-13.9628 3.0355,-17.2617 3.6621,-17.649 0.3016,-0.1856 0.5484,-1.1208 0.5484,-2.0764 0,-0.9557 0.8339,-5.1849 1.853,-9.3983 1.0193,-4.2133 2.0639,-8.9562 2.3213,-10.5394 0.2574,-1.5833 3.1458,-10.9394 6.4184,-20.7912 5.7569,-17.3296 9.3197,-29.3803 10.1748,-34.4149 0.4264,-2.5102 7.1228,-18.4339 7.9909,-19.0018 0.947,-0.6197 3.2278,-14.0652 3.2278,-19.0288 l 0,-5.0205 3.9037,-5.0883 c 2.147,-2.7985 5.3427,-8.1109 7.1017,-11.8053 4.0577,-8.5217 4.0656,-8.5407 5.3204,-13.0724 1.2355,-4.4616 5.2442,-12.6523 8.6433,-17.661 1.5298,-2.2541 5.1673,-5.7909 9.9895,-9.7121 4.1709,-3.3919 9.2126,-7.9861 11.2042,-10.2095 6.7299,-7.5134 6.2936,-6.4303 6.305,-15.6574 0,-4.5267 0.389,-9.8258 0.8542,-11.8015 0.9725,-4.1321 4.3273,-10.5942 9.7412,-18.7639 2.0836,-3.1444 6.8111,-10.3474 10.5055,-16.0069 10.0593,-15.4096 12.8473,-18.9943 22.3407,-28.7259 8.8815,-9.1044 21.7625,-20.509 41.632,-36.8607 6.1575,-5.0671 13.4983,-11.1216 16.313,-13.4542 13.2961,-11.0187 38.9171,-30.9072 43.8215,-34.0171 3.5881,-2.2753 20.0912,-14.7032 27.1318,-20.43214 3.4502,-2.8072 17.9174,-10.6699 23.0867,-12.5472 1.0554,-0.3832 4.9417,-3.33 8.6363,-6.5484 8.3096,-7.2391 11.3031,-9.2365 19.9141,-13.2881 11.4243,-5.3748 14.8442,-8.0095 30.8441,-23.7609 8.1589,-8.0321 15.4776,-14.808 16.2635,-15.0574 0.7858,-0.2495 1.4252,-0.6503 1.4209,-0.8904 0,-0.241 -1.6325,-1.4442 -3.6175,-2.6756 -6.1155,-3.7937 -12.4962,-10.531 -15.1462,-15.9931 -2.8496,-5.8738 -5.9837,-19.2277 -6.8311,-29.1077 -0.8287,-9.6593 -0.8241,-53.4919 0,-57.8954 0.9019,-4.785 2.3292,-9.0123 4.968,-14.7137 1.2215,-2.6388 2.7763,-6.0738 3.4555,-7.6335 0.679,-1.5597 3.0916,-6.0699 5.3611,-10.0227 2.2697,-3.9528 4.4361,-8.0025 4.814,-8.9994 1.1448,-3.0181 9.1345,-14.9266 10.0145,-14.9266 0.5226,0 0.8231,-0.8737 0.8255,-2.3989 0.024,-5.168 1.927,-15.0307 3.5571,-18.2833 3.5064,-6.9967 4.9899,-8.518 45.4009,-46.5677 8.08,-7.6079 18.4335,-16.8854 23.0076,-20.6162 4.5742,-3.7308 10.9073,-8.9731 14.0741,-11.6497 6.552,-5.5377 27.5305,-19.7393 33.2757,-22.5263 5.6446,-2.7378 6.6383,-3.062 18.8618,-6.1497 13.4494,-3.3975 23.0296,-4.7971 34.3794,-5.0227 4.6588,-0.094 8.4732,-0.2314 8.4766,-0.3102 0,-0.08 -0.6648,-1.6611 -1.4845,-3.5185 -0.8195,-1.8573 -2.4372,-6.2555 -3.5949,-9.7742 -1.1573,-3.5185 -3.1856,-8.5561 -4.5069,-11.1951 -1.3212,-2.6389 -2.6182,-5.8055 -2.8821,-7.0369 -0.2639,-1.2316 -1.3247,-4.974 -2.357,-8.3165 -1.6271,-5.2683 -1.9202,-7.3978 -2.2022,-15.9931 -0.2049,-6.218 -0.9058,-13.2498 -1.8815,-18.8558 -1.6731,-9.6116 -1.9807,-20.7232 -0.8862,-32.0027 0.3073,-3.1665 0.8761,-10.5074 1.2637,-16.3129 0.906,-13.5716 3.0704,-22.3159 8.1143,-32.786 1.9918,-4.1343 3.8564,-7.5168 4.1434,-7.5168 0.2873,0 0.5221,-0.6739 0.5221,-1.4977 0,-2.9935 1.8944,-7.6663 5.067,-12.4988 1.7831,-2.7161 3.6718,-6.385 4.1967,-8.1531 2.4708,-8.3189 12.2096,-19.9356 39.2281,-46.7914 24.0992,-23.9544 26.3058,-25.7837 37.8713,-31.3974 4.8665,-2.3621 8.1274,-4.5086 11.835,-7.7911 5.7352,-5.0774 11.8459,-8.3578 18.5885,-9.9789 2.443,-0.5874 6.0251,-1.7156 7.9603,-2.5074 1.9352,-0.7915 5.6775,-1.9426 8.3165,-2.5579 2.6387,-0.6154 7.5327,-1.9089 10.8752,-2.8745 3.8133,-1.1017 8.4245,-1.8964 12.3771,-2.1333 3.4649,-0.2073 7.7829,-0.7961 9.5959,-1.3075 5.3138,-1.4992 18.8948,-2.4657 22.5745,-1.6065 4.6742,1.0916 8.9008,0.7474 13.5212,-1.101 3.4047,-1.3622 4.7703,-1.5902 7.5582,-1.2627 3.538,0.416 10.7482,-0.3314 15.482,-1.6047 2.5148,-0.6766 2.8703,-0.6168 4.2909,0.7175 1.3442,1.263 1.9689,1.3994 4.7274,1.0335 2.6178,-0.3471 3.3279,-0.2217 4.0254,0.7137 0.4659,0.6245 2.4302,1.6698 4.3654,2.3235 1.9352,0.6531 6.6853,2.6143 10.5554,4.3577 18.0963,8.1511 18.763,8.5337 31.8265,18.2635 6.9258,5.1587 8.1564,6.3353 8.1564,7.7981 0,2.5279 5.4525,8.305 11.8644,12.5713 6.4182,4.2707 13.0546,11.2901 13.0729,13.8273 0.024,0.9721 1.0306,3.0434 2.371,4.7981 1.577,2.0644 2.5216,4.1159 2.8503,6.1907 0.6819,4.303 3.774,8.19 16.8333,21.1602 9.761,9.6942 15.1754,14.3821 26.7848,23.1922 4.7527,3.6065 7.9764,8.1592 11.956,16.8845 10.1712,22.3012 11.6043,27.4451 11.3866,40.8786 l -0.1494,9.2926 2.6062,6.7316 c 4.1591,10.7414 5.974,13.7728 15.3098,25.5745 3.6257,4.5833 9.3394,14.6049 10.8299,18.9949 3.2396,9.5414 6.3426,33.2417 7.9825,60.971 0.3852,6.5091 1.301,19.1759 2.0357,28.148 1.0699,13.0668 1.2449,18.668 0.8792,28.1479 -0.2511,6.5094 -0.649,19.032 -0.8845,27.8281 -0.4194,15.6584 -0.4637,16.0604 -2.1179,19.192 -4.6821,8.8639 -9.0331,12.8244 -18.2101,16.5757 -1.798,0.7351 -3.3813,1.5459 -3.5182,1.8019 -0.1374,0.256 0.4529,1.6019 1.3114,2.9906 1.6219,2.6243 9.003,7.9586 14.2103,10.2698 1.9207,0.8525 3.5727,2.3334 5.3399,4.7863 l 2.5589,3.5517 4.6836,0 c 3.5447,0 7.3556,0.7209 15.6733,2.954 10.902,2.9267 11.0693,2.9988 20.9054,9.014 16.379,10.016 17.8941,11.0035 24.5893,16.0254 4.046,3.0345 9.2898,6.1792 14.1143,8.4641 4.3124,2.0424 9.0599,4.8335 10.8326,6.369 5.8655,5.0798 9.6156,7.6041 16.036,10.794 11.024,5.4771 20.0072,12.6056 25.9858,20.6218 1.8522,2.4833 3.2632,3.7653 4.1629,3.7821 1.6968,0.031 12.8169,11.5301 14.6116,15.1084 0.6925,1.3805 2.0598,3.4555 3.0386,4.6112 1.444,1.7045 1.7799,2.7229 1.7799,5.3932 0,2.7578 0.4139,3.927 2.5525,7.2092 2.8658,4.3987 7.0772,13.7381 8.7181,19.3337 0.7078,2.4144 1.0754,5.8646 1.054,9.8967 -0.029,5.3199 -0.2698,6.6918 -1.719,9.7559 -1.5633,3.3045 -1.8472,3.5655 -3.8764,3.5655 -1.2044,0 -6.2546,0.5867 -11.223,1.3039 -7.277,1.0504 -10.1659,1.7923 -14.8584,3.8152 -9.1666,3.9521 -9.3086,2.9569 2.0067,14.0845 l 9.7837,9.6212 -0.4471,3.2511 c -0.3449,2.5086 -1.451,4.7937 -4.8415,10.002 -2.947,4.5274 -4.2974,7.1902 -4.101,8.0852 0.1615,0.7344 0.7621,4.9335 1.3355,9.3314 1.1887,9.1163 3.3298,16.5979 5.7856,20.21644 0.9272,1.3664 3.8399,6.5168 6.4726,11.4452 2.6327,4.9287 5.4628,10.1211 6.2893,11.5388 1.4271,2.4486 3.7641,7.4067 16.4236,34.8465 5.5199,11.9647 15.4101,35.0065 17.299,40.3028 2.0367,5.7098 4.928,16.1958 4.928,17.8712 0,0.9414 0.7464,2.7033 1.6585,3.9152 1.5965,2.121 1.6435,2.4312 1.2586,8.3158 -0.2193,3.362 -0.077,8.9757 0.3174,12.4749 l 0.7166,6.3618 5.0135,7.4524 c 4.7904,7.1211 5.183,7.9885 8.8323,19.5116 2.1003,6.6328 4.0381,12.923 4.3064,13.9787 0.4575,1.8026 0.5452,1.6792 1.4478,-2.0352 0.894,-3.68 0.8578,-4.7451 -0.5215,-15.3535 -1.0097,-7.7638 -1.6311,-16.8054 -1.9487,-28.3518 -0.261,-9.4932 -0.8026,-18.2195 -1.2307,-19.8317 -0.4208,-1.5847 -0.8631,-8.4855 -0.9843,-15.3535 -0.123,-6.8609 -0.6698,-15.4973 -1.2191,-19.1917 -0.9526,-6.4035 -1.3796,-11.3527 -2.927,-33.9055 -1.3312,-19.4034 -1.9231,-37.9755 -2.538,-79.64594 -0.7621,-51.6304 -1.0002,-58.7907 -2.2651,-68.1309 -1.7593,-12.9878 -3.7554,-35.8703 -3.9622,-45.4206 -0.1109,-5.102 -0.4669,-13.7384 -0.7916,-19.1918 -1.3065,-21.945 -0.2518,-45.0317 2.3529,-51.4981 0.7089,-1.7592 1.7834,-5.4298 2.3883,-8.1565 0.6048,-2.7269 1.3177,-4.9581 1.5845,-4.9581 0.5751,0 1.7821,-8.8684 2.3071,-16.9526 0.2049,-3.1666 0.9511,-8.2045 1.6566,-11.1951 0.7054,-2.9908 1.6642,-8.4604 2.1304,-12.155 0.4661,-3.6942 1.4234,-8.8762 2.1275,-11.5149 0.7038,-2.639 2.2025,-8.9724 3.3302,-14.0741 1.8981,-8.5853 2.7706,-12.0476 7.4958,-29.7472 0.9393,-3.5187 1.9379,-6.4934 2.2189,-6.6106 0.2808,-0.1181 0.5107,-1.0226 0.5107,-2.0118 0,-2.8971 2.3047,-9.5484 6.1273,-17.6839 1.9593,-4.1699 3.7694,-7.7296 4.022,-7.9104 0.2528,-0.1808 1.3999,-2.4558 2.5493,-5.0557 2.3237,-5.2567 4.954,-9.5595 10.2112,-16.7037 4.5173,-6.1391 12.4969,-14.3855 14.8721,-15.3693 1.0111,-0.4189 2.0203,-1.3341 2.2425,-2.0338 0.3902,-1.2297 5.4296,-6.5469 34.8072,-36.7267 12.6099,-12.9545 14.0062,-14.6157 16.5644,-19.7068 3.0957,-6.1608 10.1719,-14.4998 20.412,-24.0552 l 5.8297,-5.4399 -3.3225,-4.8079 c -1.8275,-2.6443 -4.9232,-6.8149 -6.8793,-9.2683 -1.9562,-2.4529 -4.5472,-6.1415 -5.7576,-8.1968 -1.4317,-2.4309 -4.7805,-6.1193 -9.5836,-10.5554 -8.7855,-8.1145 -15.4535,-14.0405 -18.526,-16.4655 -1.2317,-0.9718 -4.5421,-3.9745 -7.357,-6.6727 -2.8147,-2.6983 -6.2462,-5.8022 -7.6255,-6.8974 -1.3794,-1.0957 -3.9791,-4.3804 -5.7771,-7.2999 -2.7347,-4.4406 -4.0502,-5.8586 -8.0476,-8.6754 -4.3975,-3.0988 -7.0319,-5.1851 -16.1891,-12.8215 -1.8168,-1.5151 -4.3309,-3.2938 -5.5867,-3.9525 -1.2562,-0.659 -3.1048,-2.4387 -4.1084,-3.9555 -1.0037,-1.5165 -6.0375,-7.0788 -11.1857,-12.3606 -11.6451,-11.9464 -15.5738,-16.9334 -17.6176,-22.3634 -0.8798,-2.3375 -2.4479,-5.9304 -3.4845,-7.9842 -2.1842,-4.3264 -6.6,-17.2913 -7.6569,-22.4803 -0.6874,-3.3743 -1.5085,-18.7422 -2.3736,-44.4177 -0.3666,-10.8813 -0.2955,-11.9244 1.2924,-18.9556 0.9243,-4.0926 2.1198,-8.686 2.6568,-10.2081 1.0077,-2.8566 1.8156,-9.1791 2.731,-21.3747 0.4631,-6.1668 0.7564,-7.3929 2.3741,-9.9157 1.0637,-1.6585 2.5795,-5.726 3.5766,-9.5959 0.9515,-3.6944 2.4305,-8.3003 3.2868,-10.2355 1.5291,-3.4563 1.9135,-4.7749 4.0102,-13.7543 0.6464,-2.7679 2.0287,-6.0355 3.6194,-8.5563 1.4228,-2.255 3.047,-5.9605 3.6327,-8.2879 1.1435,-4.545 1.9726,-5.4302 11.1864,-11.94336 3.5243,-2.4915 3.62,-2.6385 3.6233,-5.5734 0,-2.8114 0.3278,-3.4043 4.8157,-8.7962 l 4.8123,-5.7819 3.1841,0 3.1844,0 0,-3.1586 c 0,-3.1042 0.072,-3.2204 4.2221,-6.7403 2.322,-1.9701 5.3083,-4.9388 6.6358,-6.5973 4.7978,-5.9933 5.975,-6.7665 10.7441,-7.0576 2.3688,-0.1446 4.6176,-0.512 4.9972,-0.8166 0.3796,-0.3047 2.5558,-1.256 4.8359,-2.1143 2.2801,-0.8583 5.9509,-2.6185 8.1569,-3.9113 2.2064,-1.2931 6.0755,-2.8573 8.5986,-3.4758 3.0393,-0.7455 6.6264,-2.3437 10.6315,-4.7376 3.3245,-1.987 6.2953,-3.6124 6.6017,-3.6124 0.502,0 6.0795,-3.8186 15.8217,-10.8324 1.935,-1.3933 5.1873,-3.9494 7.2269,-5.6799 3.1562,-2.678 4.2133,-3.1987 7.0986,-3.4966 5.0393,-0.5201 11.9832,-2.7667 18.5451,-6.0005 l 5.8328,-2.8742 11.4071,0.2073 c 9.532,0.1735 11.5301,0.3753 12.1549,1.2266 1.4186,1.9332 5.3131,2.611 14.8224,2.5794 l 9.2428,-0.031 3.3572,3.8139 3.3573,3.814 6.1053,0 6.1054,0 7.3213,7.3418 7.3211,7.3421 -1.4504,2.9853 c -0.7976,1.6418 -1.2182,3.214 -0.9343,3.4936 0.2837,0.2796 2.9463,1.5467 5.9167,2.8154 5.3818,2.2989 9.7031,4.7144 16.9898,9.4966 10.9935,7.2148 15.4493,10.2972 16.3563,11.3141 0.5515,0.6185 3.1422,2.1285 5.7573,3.3558 13.3402,6.2594 20.7992,11.8603 36.6265,27.503 l 5.0164,4.9576 5.6723,0 c 6.6869,0 12.2131,1.7445 22.8105,7.20076 8.779,4.5199 11.5932,6.6219 14.4737,10.8094 2.1709,3.156 2.5755,4.3934 3.6992,11.3094 1.4763,9.0854 1.1482,11.8289 -1.4505,12.137 -1.4577,0.1735 -1.6799,0.5543 -2.0253,3.4707 -0.2974,2.5112 -0.866,3.7694 -2.4343,5.3874 -1.8853,1.9453 -1.9829,2.2494 -1.2435,3.8725 0.7257,1.5924 0.6527,1.885 -0.7611,3.0545 -0.86,0.7112 -1.7332,2.1938 -1.9403,3.2941 -0.3485,1.8515 0.053,2.4239 5.3765,7.6766 3.1642,3.1219 6.6316,7.0388 7.7053,8.7045 2.4541,3.8077 4.6556,10.2587 5.6908,16.6762 0.799,4.9531 0.8087,4.9702 5.384,9.5814 6.5993,6.6513 8.8328,12.3453 9.7167,24.771 l 0.3868,5.4377 5.3314,5.2703 c 10.3713,10.2526 13.011,15.9022 13.5289,28.9551 0.2796,7.0418 0.1519,8.493 -1.0761,12.1548 -3.2406,9.668 -8.8887,16.6712 -22.302,27.6527 -8.7315,7.1485 -21.2243,18.3055 -21.2291,18.9594 0,0.2241 -0.804,1.2714 -1.7836,2.3268 -0.9792,1.0557 -2.3839,3.3587 -3.1217,5.1179 -2.5717,6.1322 -2.8749,10.5665 -2.4028,35.1406 l 0.4435,23.0746 -2.3092,9.9157 c -1.27,5.4537 -3.3471,16.2491 -4.6161,23.9898 -1.2688,7.7408 -3.3064,17.468 -4.5284,21.616 -2.9556,10.0355 -4.1972,16.6675 -3.4753,18.5661 0.3129,0.8231 1.2943,1.9718 2.181,2.5527 0.8868,0.5808 2.5033,2.7185 3.5927,4.7498 1.0895,2.0314 4.2049,6.3329 6.923,9.5583 4.2268,5.0167 6.7414,8.8998 13.0073,20.0874 0.5657,1.0101 1.7891,2.8337 2.7187,4.0526 0.9297,1.2188 1.6903,2.5232 1.6903,2.8985 0,0.4107 1.5932,0.6826 4.0003,0.6826 5.8101,0 11.4766,1.9024 18.4962,6.2102 9.834,6.0345 13.968,11.9714 13.968,20.0599 0,2.3611 -0.2482,3.0728 -1.1542,3.3098 -1.471,0.3846 -10.8432,11.4503 -11.0471,13.0435 -0.084,0.6589 0.1494,1.9175 0.5184,2.797 0.3695,0.8798 1.1401,2.7508 1.7122,4.1582 0.8793,2.1632 4.4007,5.4377 5.8475,5.4377 0.96,0 16.0071,12.0782 21.7155,17.4316 3.5187,3.2991 9.2763,8.2719 12.7948,11.0504 12.8318,10.1329 25.6242,23.7647 28.2774,30.1328 0.6045,1.4515 2.041,3.2842 3.1921,4.0728 6.4739,4.4361 19.8719,26.06 30.5237,49.2646 2.1806,4.75 5.6245,11.1702 7.6535,14.2669 4.3389,6.6228 12.5448,21.4952 12.5527,22.7507 0.024,1.5047 3.2003,6.7508 4.8374,7.953 1.5216,1.1174 1.5652,1.1138 1.5652,-0.1277 0,-2.8503 3.5698,-12.4947 8.3105,-22.4535 2.7638,-5.8056 5.9304,-12.8584 7.0369,-15.6733 2.6775,-6.8104 7.5171,-15.8215 12.2006,-22.7177 4.5286,-6.6677 22.6184,-24.6464 30.8282,-30.6385 2.9021,-2.1181 7.3138,-6.093 9.8039,-8.833 4.0933,-4.5047 4.5931,-5.35 5.2155,-8.8205 0.3786,-2.1109 0.7394,-9.445 0.8023,-16.2978 0.063,-6.8525 0.2073,-12.6125 0.3245,-12.8 0.1156,-0.188 0.5307,-3.7925 0.9221,-8.0119 1.4018,-15.1124 2.1126,-18.9536 4.6443,-25.1002 1.3398,-3.2529 2.436,-6.5841 2.436,-7.4026 0,-0.8349 1.4814,-3.3476 3.3731,-5.7216 1.8554,-2.3283 5.0844,-7.2016 7.176,-10.8297 4.6243,-8.022 14.7495,-20.5842 27.0342,-33.5421 5.0439,-5.3201 10.0563,-11.0777 11.1392,-12.7945 1.0829,-1.717 5.0735,-6.2883 8.8685,-10.1587 l 6.8995,-7.0369 0.229,-5.3591 0.2289,-5.3592 -6.8988,-7.2242 -6.8986,-7.2245 -2.5068,-8.5274 c -4.3426,-14.773 -5.741,-18.474 -8.721,-23.0806 -2.8947,-4.4747 -4.9506,-9.2493 -7.3693,-17.1135 -1.8207,-5.9197 -2.4688,-21.2754 -1.8629,-44.141 l 0.5001,-18.872 2.4187,-7.0369 c 1.33,-3.8706 3.7826,-10.0598 5.4498,-13.7542 1.6674,-3.6945 3.2423,-7.4368 3.4999,-8.3166 0.2577,-0.8795 1.3428,-3.3266 2.4112,-5.4375 1.8667,-3.6874 1.939,-4.1405 1.8455,-11.5151 l -0.096,-7.6766 3.6689,-5.4137 c 3.0757,-4.5382 4.6508,-6.1207 9.746,-9.7918 3.3425,-2.408 7.5168,-5.1131 9.2761,-6.0111 1.8893,-0.9643 5.5551,-4.0473 8.9562,-7.5318 3.1665,-3.2444 6.8253,-6.6927 8.1302,-7.6631 1.3049,-0.9701 5.2637,-5.1215 8.7976,-9.2252 3.5336,-4.1034 8.8583,-9.7 11.8326,-12.4363 3.4184,-3.1456 6.7134,-6.9791 8.9578,-10.4221 3.9861,-6.1155 6.4171,-8.653 21.4565,-22.3959 6.623,-6.0521 11.8663,-10.3002 14.0741,-11.4026 3.3699,-1.6828 9.2663,-5.7598 13.7381,-9.499 1.2398,-1.0364 2.8708,-1.759 3.9706,-1.759 1.0267,0 2.1403,-0.2683 2.4746,-0.596 0.3343,-0.3278 3.1986,-0.7159 6.3652,-0.8622 3.1665,-0.147 7.0531,-0.6269 8.6363,-1.068 2.0924,-0.583 4.8885,-0.6601 10.2356,-0.2829 7.6168,0.5377 18.0691,0.8718 26.006,0.8313 2.569,-0.024 4.7592,0.275 4.9957,0.6572 0.2313,0.3746 1.376,0.6807 2.5435,0.6807 1.1675,0 2.4502,0.3943 2.8501,0.8761 0.4338,0.523 2.5934,1.014 5.356,1.2179 8.962,0.6619 14.6027,3.6305 20.0493,10.5511 2.4098,3.0617 2.767,3.2574 10.8085,5.9197 10.2835,3.4045 21.7792,8.8398 29.6358,14.0122 3.2811,2.16 6.304,4.223 6.7171,4.584 0.4133,0.3611 4.3497,2.7742 8.7479,5.3623 7.0579,4.1533 13.4957,9.0389 25.5182,19.3651 3.1432,2.6997 5.6142,6.6891 7.3336,11.8403 0.4565,1.367 1.8154,1.4068 5.9099,0.1735 8.876,-2.6746 18.3296,-1.5982 25.0988,2.8578 1.9969,1.3146 5.3054,3.4462 7.3522,4.7369 l 3.7214,2.347 -0.1663,5.299 c -0.1591,5.0807 -0.07,5.4683 2.2025,9.4163 7.4001,12.8658 8.0205,15.9234 4.9229,24.2689 -1.11,2.9906 -2.1625,6.0186 -2.3389,6.7284 -0.3616,1.4543 5.1747,10.0627 9.8364,15.2949 1.5442,1.7332 3.5585,4.4678 4.4763,6.0774 0.9176,1.6093 2.0132,3.3579 2.4348,3.8855 0.4218,0.5279 0.9559,3.1018 1.187,5.7203 0.2314,2.6182 0.5421,4.8817 0.6901,5.0299 0.147,0.147 8.9933,-2.1839 19.656,-5.1823 10.6624,-2.9981 19.4677,-5.3719 19.5677,-5.2748 0.4604,0.4481 3.3847,12.0387 3.1868,12.6321 -0.1229,0.369 -7.2644,2.7934 -15.8699,5.3873 -8.6056,2.5942 -16.0182,4.8562 -16.4726,5.0271 -0.6119,0.2289 -0.4627,0.8021 0.5749,2.2056 1.0639,1.4389 1.5155,3.2502 1.8773,7.5267 0.262,3.0976 0.8556,7.5028 1.3194,9.7899 0.758,3.7399 1.2574,4.6088 4.9655,8.6363 8.7661,9.5217 12.7572,17.7495 13.3436,27.5083 0.6532,10.8678 -3.4883,19.4742 -16.2961,33.866 -1.5464,1.7376 -5.4975,7.0632 -8.7805,11.835 -5.3093,7.7171 -7.4705,10.123 -19.5581,21.7734 -13.6313,13.1384 -15.8138,15.887 -15.0454,18.9485 0.5199,2.0721 5.9135,7.2049 11.3982,10.8475 7.3165,4.8588 23.7756,17.2812 31.8253,24.0197 8.3399,6.9815 14.5629,13.3144 28.8556,29.3656 5.483,6.1575 11.4532,12.574 13.2671,14.2595 1.814,1.6855 3.298,3.1774 3.298,3.3158 0,0.1373 1.4538,2.6447 3.2306,5.5703 3.4756,5.7223 6.1016,8.8407 7.4445,8.8407 0.5264,0 0.84,0.8004 0.84,2.1429 0,1.8123 0.5681,2.6368 3.6783,5.3382 4.3456,3.7747 6.2478,4.4595 13.914,5.01 3.1668,0.2265 8.4103,0.9392 11.6528,1.582 7.0073,1.3898 9.2789,2.7769 24.8117,15.1549 5.6296,4.4862 12.1281,9.6048 14.4407,11.3749 6.9774,5.3401 12.9589,10.3105 14.9466,12.4197 1.0335,1.0966 2.2232,1.994 2.6443,1.994 0.9332,0 1.5339,2.0602 1.5454,5.3032 0.024,3.2051 -1.8033,6.6578 -6.9641,13.2488 -2.3416,2.9907 -4.8846,6.3276 -5.6506,7.4154 l -1.3933,1.9778 3.7161,7.2982 c 3.9147,7.6892 5.4553,11.8309 6.1654,16.5745 0.3569,2.3859 4.1499,13.2459 11.7303,33.5854 1.3548,3.6352 3.2804,13.6825 3.2804,17.1166 0,2.377 0.309,3.7788 4.4792,20.3077 3.5606,14.1131 5.8397,29.3273 8.2902,55.3361 0.6308,6.6959 1.9096,16.0881 3.2924,24.1798 0.605,3.5416 1.686,6.5346 5.7077,15.8032 0.9923,2.2873 2.9672,8.0446 4.389,12.7947 2.4597,8.2168 2.6185,9.2734 3.2746,21.75 0.3793,7.2126 0.8664,13.8338 1.0829,14.7138 0.5343,2.1735 4.3281,6.7226 6.9663,8.3531 1.4018,0.8665 2.9513,2.84244 4.4196,5.63694 1.2435,2.3666 3.4903,5.6997 4.9926,7.4069 2.4397,2.7724 2.8783,3.0258 4.1051,2.369 2.2254,-1.1909 7.6048,-0.8889 10.5029,0.5898 1.4283,0.7286 4.4396,3.1947 6.6918,5.4804 3.9995,4.059 4.0947,4.2347 4.0947,7.5601 0,3.3941 0.024,3.406 2.2731,3.8309 1.2502,0.2338 4.2818,0.229 6.7369,-0.024 l 4.4637,-0.4399 9.9015,-9.9241 c 5.4457,-5.458 10.4749,-10.8524 11.1763,-11.9869 1.6389,-2.6522 3.4816,-2.8761 18.0597,-2.193 8.7253,0.4087 12.2929,0.8621 17.0054,2.1598 3.2801,0.9033 6.7426,1.6423 7.6947,1.6423 0.9522,0 3.8821,-1.0398 6.511,-2.3105 7.2938,-3.5256 11.2801,-4.7264 15.6911,-4.7264 l 3.994,0 3.2476,3.5534 c 3.2538,3.5601 4.0694,5.4409 4.9087,11.3204 0.3921,2.7467 0.5958,3.0386 2.1205,3.0393 1.4772,2e-4 5.6402,1.8163 11.0285,4.8111 2.3647,1.3143 5.1017,5.5329 6.1092,9.4172 1.0159,3.9167 1.1345,10.9346 0.2145,12.6548 -0.5709,1.0667 -0.3241,1.2899 2.0791,1.879 7.822,1.9171 7.9651,2.6447 1.3143,6.6783 -4.9605,3.0087 -8.2428,6.7641 -11.2922,12.9212 -0.9713,1.961 -0.9547,2.0087 1.5433,4.4481 1.3888,1.3563 2.5252,2.808 2.5252,3.2261 0,1.9196 6.7467,1.5985 22.9589,-1.0925 8.5041,-1.4117 8.9958,-1.3141 9.0177,1.7864 0.024,1.4484 -1.4459,1.9212 -9.5862,3.1146 -1.5833,0.2313 -5.9791,1.4157 -9.7685,2.6307 l -6.8896,2.209 3.758,3.1403 c 5.8075,4.8528 7.1796,7.0022 7.8434,12.2896 0.3136,2.4975 1.0656,5.2849 1.671,6.1945 0.6055,0.9092 1.021,2.1572 0.9236,2.7728 -0.096,0.6158 0.1302,1.1195 0.5069,1.1195 2.3049,0 14.8222,2.223 20.4619,3.6337 l 6.6716,1.6691 1.4897,-1.8518 c 3.8289,-4.7595 6.2199,-16.4417 6.1404,-29.9995 -0.029,-4.9261 -0.3531,-10.2421 -0.7205,-11.8138 -0.4102,-1.7566 -0.4398,-3.1318 -0.077,-3.5698 0.9352,-1.1265 1.4221,-21.5275 0.7322,-30.6768 -0.7016,-9.3035 -2.1803,-19.977 -3.7667,-27.1884 -1.1781,-5.3541 -1.2343,-16.85504 -0.1446,-29.39574 0.8041,-9.2491 2.0663,-15.5603 4.4539,-22.2709 1.0345,-2.9077 2.6168,-8.2333 3.5163,-11.835 1.8142,-7.2639 3.2326,-11.9697 4.4809,-14.8649 0.455,-1.0556 1.7064,-4.7149 2.7804,-8.1319 1.7939,-5.7064 5.3775,-13.8118 6.4455,-14.5785 0.2451,-0.176 1.1118,-3.4864 1.9262,-7.3568 0.8144,-3.8703 1.8904,-8.6202 2.391,-10.5554 0.5006,-1.9352 1.4553,-5.8935 2.1215,-8.7959 0.6662,-2.9026 1.9311,-7.5558 2.8105,-10.3404 1.4226,-4.5028 1.6347,-6.5021 1.9167,-18.0727 0.348,-14.2864 0.8337,-16.8519 4.6083,-24.3477 1.1921,-2.3669 2.1671,-4.7453 2.1671,-5.2857 0,-1.5859 19.0317,-20.5991 24.42,-24.3964 5.4881,-3.8677 9.9705,-6.0907 15.2431,-7.5595 13.7774,-3.838 17.8492,-6.1752 24.1498,-13.8617 2.5508,-3.1121 4.6381,-5.8892 4.6381,-6.1712 0,-0.2822 1.8787,-1.3316 4.1755,-2.3321 4.5722,-1.9921 14.8458,-8.3211 21.481,-13.2334 2.3241,-1.7207 5.1183,-3.504 6.2094,-3.9627 l 1.9837,-0.8342 -2.8265,-3.4922 c -2.6804,-3.3116 -2.8282,-3.7067 -2.8586,-7.6501 -0.043,-5.6619 3.1464,-15.217 6.4156,-19.2175 1.665,-2.0374 2.4809,-3.7564 2.7325,-5.7576 0.1976,-1.5691 0.8038,-5.5879 1.348,-8.9304 0.5939,-3.6486 1.0244,-10.6795 1.0767,-17.5926 l 0.087,-11.5151 -2.3315,-4.6436 c -1.2822,-2.5539 -2.925,-6.1526 -3.6507,-7.9967 -2.9126,-7.4008 -5.6301,-11.7217 -8.116,-12.9034 -4.7224,-2.2447 -10.8541,-7.1317 -19.2532,-15.3445 -6.7538,-6.6043 -9.5733,-9.923 -13.3614,-15.7276 -2.6405,-4.0463 -6.1432,-9.0839 -7.7837,-11.1953 -3.8932,-5.0099 -4.7983,-6.512 -5.7814,-9.5958 -0.4485,-1.4074 -2.1933,-5.7489 -3.8771,-9.648 -1.684,-3.899 -3.653,-9.8005 -4.376,-13.1143 -1.4471,-6.6332 -4.1288,-14.8172 -6.7954,-20.7392 -1.4549,-3.2306 -4.7793,-16.6636 -4.7959,-19.379 0,-0.4548 1.234,-2.182 2.7481,-3.8383 5.8986,-6.4512 6.5392,-7.6653 7.6658,-14.5265 0.5775,-3.5185 1.2246,-8.1244 1.4377,-10.2355 0.5416,-5.3597 1.3237,-7.1235 5.1063,-11.5152 5.8993,-6.8492 7.9837,-10.2797 9.9697,-16.407 1.0581,-3.2644 2.1627,-6.2343 2.4546,-6.5992 0.2916,-0.3649 0.8588,-2.2471 1.2598,-4.1822 1.0376,-5.0051 2.6212,-9.5959 3.3098,-9.5959 0.3234,0 0.5883,-0.308 0.5883,-0.6843 0,-1.9879 8.2606,-11.4035 14.0739,-16.0418 1.5835,-1.2632 7.485,-6.7501 13.1145,-12.1931 10.929,-10.567 25.6156,-23.5384 26.6505,-23.5384 0.3452,0 1.9116,-0.8839 3.4814,-1.9636 3.3046,-2.2739 19.0498,-8.6125 27.4437,-11.0483 7.0068,-2.0335 18.7692,-3.6209 26.8305,-3.6209 11.1765,0 20.5863,2.7749 26.239,7.7383 l 2.2668,1.9904 16.5815,0.094 c 16.3311,0.091 16.6046,0.1156 18.138,1.5562 1.3015,1.2228 2.805,1.5997 9.1678,2.2975 4.8304,0.53 8.7504,1.3396 10.7306,2.216 1.8668,0.8259 4.4305,1.3805 6.3821,1.3805 3.1815,0 3.3739,-0.1108 7.7554,-4.4584 3.8943,-3.8643 5.7297,-5.0675 13.7692,-9.0264 5.1018,-2.5121 10.8811,-4.8961 12.8427,-5.2979 l 3.5665,-0.7303 -1.3288,-2.8781 c -0.731,-1.5828 -2.0243,-3.9976 -2.8742,-5.3659 l -1.545,-2.4878 2.1861,-1.8482 c 3.8991,-3.2957 5.5469,-3.8238 14.5887,-4.6742 6.6597,-0.6261 11.794,-0.6635 21.823,-0.159 7.2129,0.3629 19.3039,0.7074 26.8686,0.7652 9.5906,0.072 15.2064,0.4066 18.5521,1.1003 12.801,2.6541 34.6944,9.7099 36.1618,11.654 0.3612,0.4786 3.0961,1.6348 6.0774,2.5693 2.9812,0.9344 9.1408,3.1576 13.6879,4.9407 7.6265,2.9906 8.5443,3.208 11.835,2.8031 1.962,-0.2415 6.1777,-0.6327 9.3681,-0.8696 5.6766,-0.4215 5.8666,-0.489 8.8991,-3.161 2.397,-2.1121 4.343,-3.1044 8.5935,-4.3816 3.0219,-0.9082 7.6544,-2.3425 10.2943,-3.1873 4.1001,-1.3119 6.0596,-1.5343 13.4345,-1.5249 8.256,0.024 8.7648,0.089 11.6175,1.7679 3.7566,2.2126 12.5931,9.2037 12.7102,10.056 0.048,0.3519 4.1241,2.6551 9.0579,5.1179 9.8991,4.9419 16.7673,9.2039 20.669,12.8265 1.4076,1.3066 3.7106,3.0998 5.1179,3.9851 1.4073,0.8853 5.4377,3.8588 8.9562,6.6077 18.3935,14.371 26.1812,20.0182 31.3466,22.7307 2.463,1.2933 7.1102,4.1772 10.3271,6.4088 3.2172,2.2314 6.128,4.0569 6.4691,4.0569 1.2837,0 21.2597,21.3906 21.273,22.7794 0,0.3138 4.3738,4.745 9.713,9.8468 13.2679,12.6781 30.2581,30.8686 31.6655,33.9024 1.0364,2.235 2.0636,2.9692 9.7942,7.001 10.6532,5.5563 15.6446,9.5392 32.3762,25.8348 18.5309,18.0486 27.2251,27.8916 29.9846,33.9468 4.6134,10.1232 4.9277,13.6299 2.6447,29.4994 -1.0976,7.6293 -2.7047,12.372 -5.5433,16.3585 -0.7442,1.0453 -3.4543,6.1406 -6.0222,11.323 -2.5678,5.1825 -6.0258,11.2597 -7.6843,13.5053 -1.6585,2.2454 -8.6646,9.8196 -15.5689,16.8312 -9.5636,9.7123 -12.8088,13.4214 -13.6256,15.5733 -2.0024,5.2752 -7.0516,13.4864 -12.21,19.8565 -13.6451,16.8499 -33.4073,37.9626 -56.7977,60.6796 -7.2189,7.0111 -13.2185,12.9755 -13.332,13.2544 -0.1133,0.2786 -2.5271,1.7392 -5.363,3.2454 -5.2076,2.766 -6.7453,4.0877 -28.8072,24.7654 -4.6667,4.3739 -14.7767,14.1411 -22.4663,21.7049 l -13.9813,13.7526 0.4254,3.2442 c 0.4358,3.3227 9.0861,30.2658 12.8516,40.0287 1.1536,2.9906 3.1326,9.4052 4.3978,14.2546 1.2651,4.8492 3.341,11.3264 4.6129,14.394 3.4228,8.2548 4.5019,11.6055 5.9646,18.5217 0.727,3.4358 2.6306,10.2772 4.2305,15.203 2.6283,8.0929 4.752,15.211 7.5385,25.2692 0.536,1.9352 1.5989,6.2533 2.3618,9.5961 0.7628,3.3425 3.1911,11.54704 5.3962,18.23224 2.2052,6.6851 4.8762,14.8895 5.9362,18.232 1.0598,3.3428 3.1208,8.7265 4.58,11.964 1.4591,3.2376 4.657,11.9803 7.1061,19.4282 2.449,7.4478 6.1526,17.8972 8.2302,23.2209 2.0774,5.3238 5.23,14.1416 7.0061,19.5953 1.7761,5.4538 4.9694,14.9538 7.0964,21.111 2.1271,6.1574 4.1582,12.6347 4.5132,14.3939 0.3553,1.7592 1.5298,6.2213 2.6103,9.9157 1.0803,3.6944 2.369,8.1201 2.8636,9.8348 0.4948,1.7148 1.5857,4.0178 2.424,5.1179 3.3425,4.3864 8.0933,16.196 11.0331,27.427 0.9691,3.7024 0.973,12.1457 0,13.1124 -0.1784,0.1784 -1.5327,-0.159 -3.0099,-0.7503 -2.1721,-0.8691 -2.7858,-0.9151 -3.2069,-0.241 -1.2499,2.0048 -1.1696,6.9991 0.3686,22.9052 1.4577,15.0719 2.2145,31.2911 3.0899,66.2119 0.1157,4.5739 0.5201,8.8921 0.9012,9.5958 0.381,0.7036 1.0171,4.6373 1.4131,8.7417 0.3962,4.1042 1.4623,10.2937 2.3688,13.7541 0.9696,3.7023 1.7881,8.9248 1.9884,12.6891 0.2073,3.9164 0.6665,6.7709 1.181,7.3604 1.0198,1.1678 2.5766,10.7841 3.1582,19.5082 0.4688,7.0271 1.9653,13.763 4.4755,20.1438 0.8981,2.283 1.9629,6.0254 2.3664,8.3166 0.4033,2.2911 1.0764,4.5975 1.4958,5.1251 0.8243,1.0373 2.1678,6.0531 4.4551,16.633 2.1405,9.9008 7.8063,31.026 8.8757,33.094 1.2507,2.4182 3.8998,12.4267 5.464,20.643 0.7033,3.6946 1.8636,9.169 2.5785,12.1654 1.4054,5.8923 2.6524,21.9127 2.1268,27.3239 -0.3124,3.2172 -0.4083,3.3601 -2.5195,3.7561 -5.7701,1.0827 -8.881,-1.0369 -13.0179,-8.8692 -2.7669,-5.2386 -3.4278,-6.0701 -10.7299,-13.4985 -6.8371,-6.955 -10.4937,-10.183 -18.7818,-16.5812 -3.0477,-2.3529 -5.6385,-4.5086 -5.7575,-4.7906 -0.1181,-0.282 -1.6269,-1.3314 -3.3512,-2.3319 -2.8605,-1.6592 -5.5804,-3.9289 -13.8179,-11.5279 -1.5833,-1.4606 -5.9015,-4.4951 -9.5959,-6.7432 -3.6944,-2.248 -10.444,-6.6669 -14.9989,-9.82 -4.5551,-3.1531 -9.8808,-6.4582 -11.835,-7.3447 -1.9542,-0.8865 -3.697,-1.7944 -3.873,-2.0174 -0.3919,-0.4967 -14.2814,-5.013 -16.9804,-5.5213 l -1.9467,-0.3669 -0.786,7.8902 c -1.1598,11.6453 -2.9079,19.3233 -5.6175,24.6745 -2.9767,5.8788 -16.0546,25.5739 -20.0677,30.2218 -3.4367,3.9802 -5.0248,8.357 -5.692,15.6872 -0.4051,4.4505 -0.4201,4.4792 -2.4138,4.6732 -2.4144,0.2338 -2.7918,1.4966 -2.7918,9.3322 0,4.5231 0.2145,5.5241 1.6235,7.5985 1.41,2.075 1.5445,2.7046 1.0222,4.7865 -1.659,6.6123 -2.1552,18.4808 -1.4124,33.7788 1.2056,24.8295 2.1054,30.9918 4.526,30.9918 1.9187,0 4.2808,4.8658 4.8142,9.9159 0.2598,2.4628 0.8631,5.7735 1.3398,7.3568 0.477,1.5833 0.8766,3.7424 0.8877,4.7978 0.024,1.8904 0.8571,5.8904 2.8115,13.4344 3.88,14.9753 4.9856,24.1882 5.1828,43.1816 0.089,8.6202 0.6679,23.0142 1.2849,31.9863 1.1781,17.1233 0.9462,26.9814 -1.2329,52.4576 -0.5244,6.1287 -0.6117,11.5551 -0.2574,15.9931 0.295,3.6944 0.7682,15.9293 1.0519,27.1885 0.3282,13.0405 0.7871,21.1172 1.2639,22.2513 0.5529,1.315 0.5835,3.7951 0.1181,9.4965 -0.3468,4.2445 -0.471,13.5191 -0.2757,20.6107 0.1952,7.0914 0.4637,27.4314 0.5967,45.1999 0.217,28.9045 0.3808,33.1473 1.5616,40.2943 0.8099,4.9042 1.4585,12.5605 1.6795,19.8315 0.1976,6.5139 0.7575,15.4419 1.2437,19.8398 0.4861,4.3982 1.0443,9.868 1.2403,12.1549 1.8139,21.1498 2.5269,28.0325 3.8952,37.6045 0.9477,6.6291 1.5803,13.9989 1.5803,18.407 l 0,7.351 -9.4358,-0.3625 c -27.3745,-1.0524 -67.6913,-1.4035 -110.8307,-0.9653 -51.2471,0.5203 -48.8675,0.6252 -55.7068,-2.4604 -2.2543,-1.0169 -5.27,-1.478 -13.1143,-2.0056 -12.0119,-0.8079 -38.9516,-0.993 -47.6504,-0.3273 l -6.1165,0.4678 -1.8069,2.8564 -1.8072,2.8566 -38.1367,-0.261 c -52.0788,-0.3565 -70.7998,-0.7614 -79.0794,-1.7105 -4.7135,-0.5404 -19.3933,-0.8538 -44.461,-0.949 -20.5832,-0.08 -42.1738,-0.1928 -47.9794,-0.2552 l -10.5553,-0.1133 0.036,-30.5466 c 0.036,-30.1752 0.6296,-45.0912 2.5455,-63.8122 0.5401,-5.2777 1.2567,-13.0505 1.5924,-17.2725 1.1605,-14.5897 2.6691,-27.5213 3.6199,-31.027 0.525,-1.9349 1.9487,-5.7901 3.164,-8.5662 l 2.2094,-5.0483 0.6414,-14.4636 c 0.9226,-20.8218 1.9839,-29.4981 4.4425,-36.3239 1.1189,-3.1063 2.4647,-7.3754 2.9909,-9.4865 0.5262,-2.1109 1.6375,-5.8988 2.47,-8.4173 0.8325,-2.5184 2.2627,-8.7077 3.1779,-13.754 1.5681,-8.6431 1.6643,-10.3623 1.6597,-29.6464 0,-11.2592 -0.3076,-23.7818 -0.6773,-27.8281 -0.3695,-4.0463 -0.6744,-10.5715 -0.6775,-14.5005 0,-4.7353 -0.249,-7.2249 -0.7279,-7.3844 -0.4295,-0.1422 -0.9299,-2.9557 -1.2338,-6.9304 -0.281,-3.679 -0.9887,-9.8562 -1.5724,-13.7266 -0.5835,-3.8703 -1.2996,-11.6429 -1.5913,-17.2727 -0.2916,-5.6296 -0.8443,-11.6863 -1.2282,-13.4597 -0.3837,-1.7732 -1.0972,-6.0914 -1.585,-9.5959 -0.9441,-6.7822 -3.5794,-18.9948 -5.2396,-24.2841 -0.5524,-1.7592 -1.4358,-7.6959 -1.9632,-13.1927 -0.9281,-9.674 -0.9149,-10.2377 0.4153,-17.5925 1.6482,-9.1124 3.1514,-21.6194 3.1818,-26.4702 0.024,-1.9355 -0.4146,-5.9656 -0.9482,-8.9562 -0.6021,-3.3741 -1.0957,-11.3855 -1.301,-21.1111 -0.3558,-16.8625 -0.7848,-20.7198 -2.7858,-25.0447 -0.7084,-1.5308 -1.5151,-4.9285 -1.793,-7.5503 -0.4907,-4.632 -0.5816,-4.8253 -3.2032,-6.8237 -1.484,-1.1309 -4.3627,-2.6594 -6.3972,-3.397 -6.8716,-2.4905 -11.8832,-5.4647 -16.5049,-9.7949 -8.5561,-8.0172 -10.9369,-14.9688 -10.2666,-29.9764 0.3803,-8.5113 0.2986,-9.6552 -0.9207,-12.9143 -1.8315,-4.8952 -6.8154,-9.405 -15.3564,-13.8952 -9.558,-5.0251 -19.2751,-11.6277 -22.3231,-15.1684 -2.544,-2.9552 -9.3413,-15.7528 -13.0936,-24.6509 -2.484,-5.8911 -6.2317,-9.1445 -18.1353,-15.7439 -16.0602,-8.9037 -30.0164,-20.7772 -37.0909,-31.5558 -1.6889,-2.5732 -3.6935,-5.3683 -4.4546,-6.2112 -4.5899,-5.0846 -17.288,-32.0383 -20.1243,-42.7178 -1.8398,-6.9271 -2.1092,-16.4166 -1.2876,-45.3113 0.7658,-26.919 1.1336,-30.6654 4.2408,-43.1816 2.4835,-10.0034 2.6474,-11.0176 3.54,-21.9015 0.845,-10.3007 0.8978,-16.461 0.147,-17.2108 -0.5664,-0.5664 -10.6364,-1.8398 -17.0717,-2.1589 -1.8699,-0.094 -3.4303,-0.537 -3.8383,-1.0928 -0.3782,-0.5148 -2.271,-1.3017 -4.2064,-1.7486 -4.4379,-1.0246 -5.2921,-1.5751 -12.3103,-7.9333 -3.1627,-2.8653 -7.4114,-6.5255 -9.4418,-8.1333 -3.8518,-3.0507 -9.2416,-8.6943 -12.4826,-13.0696 -2.3435,-3.1636 -4.2399,-4.831 -8.1344,-7.1526 -1.8599,-1.1084 -3.0308,-2.2625 -3.0388,-2.9942 -0.024,-0.6549 -1.2191,-2.6315 -2.6934,-4.3927 -2.6694,-3.188 -2.6947,-3.2005 -5.7682,-2.8366 -1.698,0.2001 -3.7176,0.8072 -4.4883,1.3471 -3.5542,2.4893 -11.2877,9.7309 -11.3115,10.5913 -0.024,0.5278 0.8662,2.9747 1.9568,5.4377 1.6457,3.7161 2.0369,5.5494 2.2987,10.7731 l 0.3152,6.2948 -2.7481,2.8002 c -2.2403,2.2825 -3.7029,3.0921 -7.9135,4.3809 -2.8407,0.8693 -7.3243,1.7577 -9.9632,1.9739 -2.6388,0.217 -6.4903,0.8583 -8.5588,1.4269 l -3.7609,1.033 -2.0993,4.5306 c -1.1545,2.4919 -3.177,7.1215 -4.4942,10.288 -6.0405,14.522 -19.7767,27.6021 -35.4828,33.7877 -2.2976,0.9051 -6.6158,2.6959 -9.5958,3.98 -9.4164,4.0574 -15.4371,5.9321 -22.8971,7.1298 -7.0094,1.1253 -7.254,1.2193 -7.5946,2.9118 -0.1928,0.9619 -0.6045,1.5927 -0.9137,1.4015 -1.4373,-0.8881 0.3131,11.3486 2.3037,16.1031 0.5751,1.3736 2.4734,7.6428 4.2186,13.9319 1.7453,6.2887 3.8844,13.5532 4.7537,16.1425 0.8694,2.5896 2.034,8.2394 2.5881,12.5554 0.5544,4.3158 1.8779,11.4455 2.941,15.8435 1.0636,4.3982 2.3288,12.0268 2.8118,16.9529 0.483,4.9258 1.321,10.6214 1.8624,12.6566 0.5413,2.0352 1.2861,5.7778 1.6546,8.3165 0.3685,2.5387 1.3553,8.2144 2.1926,12.6126 3.0359,15.9449 3.5597,20.6022 3.5604,31.6664 0,7.2594 0.3206,12.3643 0.9624,15.3534 0.5288,2.4628 1.3994,7.6446 1.9347,11.5152 0.5353,3.8701 1.4049,9.3399 1.9325,12.1546 1.2252,6.538 2.5144,20.1565 3.7851,39.9829 0.985,15.3711 2.6235,33.968 4.5139,51.2325 0.6874,6.2799 0.9033,14.2814 0.778,28.8431 -0.1278,14.8504 0.031,20.5588 0.6042,21.6964 0.4281,0.8492 2.4064,5.7181 4.3966,10.8201 6.0152,15.4199 7.1964,17.4241 14.39,24.4118 6.0871,5.9128 8.2638,9.102 8.2638,12.1071 0,0.799 1.8387,3.4209 4.3893,6.258 10.9685,12.2008 14.1439,16.3368 14.1533,18.4335 0.024,3.2424 -4.0289,5.6363 -6.8764,4.0706 -2.1101,-1.16 -16.4734,-5.7397 -19.3431,-6.1673 -1.5833,-0.2362 -3.3104,-0.7879 -3.8383,-1.2266 -0.5278,-0.4384 -1.9096,-1.2786 -3.0709,-1.867 -1.161,-0.5883 -5.7669,-4.5869 -10.2355,-8.8855 -4.4684,-4.2992 -10.2426,-9.25 -12.8312,-11.0025 l -4.7067,-3.1864 -15.7646,-0.4275 c -8.6706,-0.2362 -17.7796,-0.726 -20.2426,-1.0907 -8.0695,-1.1945 -15.6921,-2.576 -16.3055,-2.9552 -0.3312,-0.2048 -1.8564,-0.7493 -3.3891,-1.2109 -2.5926,-0.7802 -2.911,-0.7399 -4.5654,0.5792 l -1.7783,1.4182 0.7828,5.6819 c 0.7617,5.5267 0.7371,5.8019 -0.8949,10.0762 -0.9226,2.4168 -1.6777,4.6253 -1.6777,4.9075 0,0.2823 1.8595,2.5392 4.1321,5.0157 2.2723,2.4763 4.9354,5.7157 5.9173,7.1984 l 1.7855,2.6959 0.3384,18.2812 c 0.331,17.8692 0.3854,18.4756 2.4219,26.9172 3.1075,12.8832 3.9188,18.2161 4.9354,32.4433 0.5081,7.1123 1.2085,14.1652 1.5563,15.6733 0.348,1.5081 0.6544,6.4842 0.6811,11.0581 0.026,4.5742 0.3276,10.3318 0.6689,12.7948 0.3412,2.4628 0.7847,7.9326 0.9853,12.1546 0.3232,6.7964 0.1735,8.5206 -1.3122,15.0336 -1.9694,8.6385 -2.2849,12.1987 -2.5213,28.468 -0.1446,9.9912 -0.43,13.1797 -1.5995,17.9122 -1.6469,6.6645 -5.4117,26.9296 -6.4772,34.8653 -0.9839,7.3271 -4.1572,24.3735 -6.0736,32.6259 -1.4464,6.2295 -4.8747,33.5155 -5.7872,46.0603 -0.5288,7.27 -1.9848,17.0836 -3.4642,23.3502 -0.6648,2.8147 -1.6843,7.5648 -2.2659,10.5554 -0.5816,2.9908 -1.4854,7.1345 -2.0087,9.208 -0.5233,2.0738 -1.6631,7.8314 -2.5331,12.7946 -0.8699,4.9634 -2.0136,10.4635 -2.5414,12.2227 -0.5278,1.7593 -1.5144,6.4677 -2.1926,10.4629 -0.6782,3.9954 -1.5664,7.6657 -1.9737,8.1565 -0.6009,0.724 -4.0837,0.8922 -18.4617,0.8922 -17.1269,0 -17.9023,-0.053 -23.112,-1.6223 -4.4317,-1.3341 -6.6988,-1.6209 -12.7473,-1.6141 -4.0463,0 -9.8039,0.4408 -12.7945,0.9689 -3.5592,0.6286 -12.2888,1.1068 -25.2692,1.3837 -16.7152,0.3567 -20.8871,0.2586 -26.5487,-0.6247 -15.6169,-2.4368 -45.8919,-4.014 -58.8549,-3.0661 -5.4536,0.3989 -17.6885,0.8764 -27.1884,1.0612 -22.9976,0.4479 -23.4589,0.5096 -24.9792,3.3324 l -1.204,2.2355 -8.9788,-0.2808 c -7.4072,-0.2313 -9.6441,-0.5396 -12.7779,-1.758 -3.3652,-1.3085 -4.935,-1.4816 -13.754,-1.5163 -6.6041,-0.026 -10.8169,0.2442 -12.5142,0.8024 -1.6426,0.5401 -8.6306,1.0345 -19.5118,1.3803 -9.324,0.2965 -20.8544,0.7347 -25.6228,0.974 -5.4459,0.2733 -11.0365,0.1567 -15.0336,-0.3164 -6.3635,-0.7513 -27.3208,-1.6417 -60.4205,-2.5667 -14.3889,-0.4023 -18.0363,-0.6893 -20.0298,-1.5761 -1.6226,-0.7218 -6.2209,-1.3878 -13.7541,-1.992 -6.2244,-0.4994 -12.3245,-1.2085 -13.5559,-1.5761 -1.2313,-0.3675 -8.122,-0.9612 -15.3124,-1.3191 -7.1905,-0.3579 -13.2118,-0.7891 -13.381,-0.9583 -0.1687,-0.1687 0.4356,-0.3076 1.3438,-0.3076 1.5864,0 1.6688,-0.1855 2.0947,-4.7308 0.7884,-8.4119 -0.961,-68.1998 -2.1639,-73.9571 -0.51,-2.4416 -0.5874,-7.1464 -0.2526,-15.3535 0.2658,-6.5081 0.2892,-16.8709 0.051,-23.0284 -0.4563,-11.8588 -1.208,-15.6463 -4.6248,-23.3043 -0.9306,-2.0861 -2.6927,-7.6629 -3.9159,-12.3932 -2.0296,-7.8504 -2.2237,-9.3922 -2.2237,-17.6748 0,-9.9803 -1.3232,-18.7441 -4.1395,-27.4176 -1.0364,-3.1914 -1.6178,-6.4394 -1.6178,-9.036 0,-4.1977 -0.1109,-3.9014 7.2122,-19.5673 3.6115,-7.7274 5.3811,-20.3363 5.9255,-42.222 0.2314,-9.324 0.6096,-19.7362 0.839,-23.138 l 0.417,-6.1852 -6.8588,-10.4476 c -7.8393,-11.9413 -12.8442,-21.7074 -15.8456,-30.9191 -1.7224,-5.2863 -3.5814,-9.484 -4.9502,-11.1769 -0.1325,-0.1664 -6.1528,-0.4903 -13.3751,-0.7207 l -13.1315,-0.4191 -2.5471,-2.478 c -5.2025,-5.061 -5.2743,-5.3305 -4.7824,-17.9365 0.4126,-10.5672 0.3671,-11.2544 -0.8633,-12.982 -0.8935,-1.2548 -1.2989,-2.8333 -1.2989,-5.0589 0,-4.1928 -0.5573,-4.6903 -11.6357,-10.3838 -9.3399,-4.8 -13.9533,-8.7139 -13.9533,-11.8374 0,-1.1966 -0.5259,-1.6343 -2.7188,-2.2632 -3.0395,-0.8718 -8.7653,-5.3399 -9.8279,-7.6691 -0.3811,-0.8349 -1.5267,-3.2456 -2.5465,-5.3565 -1.0195,-2.1114 -1.9048,-4.2705 -1.9674,-4.7981 -0.063,-0.5278 -0.431,-3.1186 -0.8188,-5.7576 -0.3876,-2.6389 -0.8797,-7.101 -1.093,-9.9157 -0.2146,-2.8149 -0.6744,-5.4789 -1.0239,-5.92 -0.3497,-0.4413 -0.7824,-3.3714 -0.9615,-6.5115 -0.3203,-5.6175 -0.3651,-5.7482 -2.7982,-8.1239 l -2.4727,-2.4146 0,5.1649 c 0,8.6573 -1.8303,23.4506 -3.6493,29.4948 -0.9244,3.0706 -1.645,6.3649 -1.6019,7.3206 0.084,1.8583 2.8164,9.0835 5.9834,15.8203 2.7072,5.759 3.6633,11.3836 4.1567,24.4499 l 0.4264,11.3009 -3.4573,1.0323 c -1.9016,0.5676 -6.416,1.4498 -10.0321,1.96 -3.6161,0.5105 -7.2145,1.277 -7.9964,1.7033 -0.7821,0.4264 -3.1495,1.2497 -5.2604,1.8299 -5.3818,1.4787 -5.8759,2.6226 -4.5336,10.4975 0.5582,3.2748 1.0152,9.5169 1.0154,13.8714 5e-4,13.5868 1.3056,40.8022 2.3109,48.1915 0.5291,3.886 1.237,14.9823 1.5732,24.6582 0.4348,12.5115 0.8957,18.5164 1.5949,20.7912 0.6081,1.9776 1.206,7.8388 1.5661,15.3534 0.3204,6.6851 0.9072,15.0334 1.3042,18.5521 0.3967,3.5185 0.9487,8.988 1.2263,12.1548 0.2775,3.1666 0.9393,6.909 1.4708,8.3163 3.3716,8.9316 5.9014,35.6178 4.4242,46.6702 -0.3784,2.8313 -1.1711,11.4811 -1.7616,19.2219 -2.5595,33.5572 -4.8981,57.7145 -7.9271,81.8849 -1.014,8.0926 -2.4591,20.1833 -3.2111,26.8686 -0.752,6.685 -1.7841,15.3214 -2.2936,19.1917 -0.5095,3.8704 -0.9243,7.8229 -0.9217,8.7832 l 0,1.7464 -42.3821,-0.147 c -23.3099,-0.082 -49.1469,-0.084 -57.4152,-0.024 -34.6715,0.316 -166.0769,-0.2673 -174.3257,-0.7739 -4.9258,-0.3025 -26.6606,-0.5802 -48.2992,-0.617 -21.6389,-0.036 -53.1614,-0.4486 -70.0502,-0.9147 -23.0503,-0.6366 -32.471,-0.6713 -37.7814,-0.1398 -6.5614,0.6572 -25.5112,0.8949 -23.2793,0.2919 1.4738,-0.398 2.5257,-5.2614 2.5257,-11.6774 0,-4.1205 0.4637,-7.4086 1.6903,-11.9856 4.8207,-17.9881 4.8956,-18.9055 1.8845,-23.0969 -1.2624,-1.757 -2.2955,-3.8081 -2.2955,-4.558 0,-0.9462 -0.3996,-1.3627 -1.308,-1.3627 -1.4888,0 -12.687,-10.5214 -14.7485,-13.8572 -0.7452,-1.2058 -1.2299,-2.9231 -1.1203,-3.9699 0.1061,-1.0144 -0.1229,-2.2405 -0.5107,-2.7243 -2.1885,-2.7325 -2.7836,-5.1386 -2.7836,-11.2529 0,-5.2524 -0.229,-6.6951 -1.3984,-8.828 -1.0971,-2.0002 -1.457,-3.9272 -1.6703,-8.9468 -0.1494,-3.5184 -0.565,-6.759 -0.9229,-7.2013 -0.395,-0.488 -0.4789,-2.3227 -0.2145,-4.6664 0.4604,-4.07 -0.07,-9.5629 -0.9219,-9.5629 -0.8253,0 -3.1868,4.3847 -6.0295,11.1951 -2.6382,6.3203 -11.3794,20.8387 -20.0293,33.2658 -2.449,3.5185 -5.9911,8.9883 -7.8711,12.1549 -1.8802,3.1665 -3.5869,5.9014 -3.7925,6.0774 -0.2049,0.1759 -1.5623,2.335 -3.0145,4.7978 -3.8626,6.5508 -11.6135,16.3718 -20.3477,25.7818 -6.8706,7.4026 -7.86,8.767 -9.424,12.9953 -0.9612,2.5985 -1.9301,6.2083 -2.1535,8.0217 -0.3534,2.8709 -0.2514,3.3404 0.7879,3.6291 4.4184,1.2271 -13.8309,-1.0535 -20.6206,-2.5772 l -4.5418,-1.0193 -4.4144,3.3611 -4.4143,3.361 -4.7981,-0.5312 c -8.6354,-0.9559 -14.6733,-0.6303 -18.2322,0.9829 -2.1615,0.98 -5.2727,1.6281 -9.5959,1.9991 -3.5185,0.3017 -8.641,0.9048 -11.3833,1.3396 -4.6629,0.7399 -5.3057,0.6939 -9.9157,-0.7094 -2.7116,-0.8252 -7.2353,-1.7235 -10.0534,-1.9961 -2.8178,-0.2726 -5.9699,-0.8176 -7.0044,-1.2109 -1.0344,-0.3934 -5.6382,-1.1311 -10.23,-1.6395 -4.5917,-0.5083 -10.5079,-1.1998 -13.1469,-1.5367 -2.6387,-0.3367 -11.275,-0.927 -19.1917,-1.311 -7.9167,-0.3842 -16.553,-1.0207 -19.1918,-1.4148 -2.6389,-0.3936 -10.9873,-0.7404 -18.552,-0.7708 -12.8654,-0.051 -13.9196,0.034 -16.313,1.3083 -1.4076,0.7496 -5.15,2.7542 -8.3165,4.4549 -5.0271,2.6999 -6.2245,3.0877 -9.4361,3.0569 -3.3514,-0.031 -3.6783,0.089 -3.6783,1.3441 0,1.8846 -2.9002,3.169 -12.3838,5.4848 -6.6409,1.6216 -8.96,1.8877 -16.3879,1.8807 -6.9135,0 -9.4879,-0.2709 -12.8107,-1.3155 -9.1615,-2.88 -14.5896,-3.2881 -47.9793,-3.6074 -28.8484,-0.2757 -32.0651,-0.4136 -36.1447,-1.5476 -3.4346,-0.9547 -7.3849,-1.3261 -16.9529,-1.5937 -9.3242,-0.261 -13.2016,-0.6163 -15.3534,-1.4076 -2.47,-0.9081 -7.1931,-1.1099 -33.2656,-1.4213 -16.7129,-0.2 -30.9945,-0.5859 -31.7366,-0.859 -1.1576,-0.4261 -1.4982,-0.1253 -2.396,2.1189 l -1.0463,2.6153 -32.1494,-0.2721 c -31.9629,-0.2707 -42.8962,-0.8581 -59.0178,-3.1704 -4.2208,-0.6055 -14.7943,-1.0331 -31.0774,-1.2572 -27.3034,-0.3758 -25.0568,-0.063 -37.2627,-5.1982 l -5.647,-2.376 -36.2552,0.2622 -36.2553,0.2623 -12.4744,3.6602 c -10.1127,2.967 -13.9285,3.7838 -20.1515,4.3126 -5.0114,0.4257 -9.7868,1.2919 -13.7543,2.4953 -4.7272,1.4334 -8.3512,2.0024 -16.313,2.5621 -5.6296,0.3958 -11.3871,0.9795 -12.7945,1.2977 -1.4073,0.3179 -7.3088,0.5953 -13.1143,0.6165 -14.5096,0.053 -21.8377,0.8313 -26.5488,2.82 -3.3526,1.4155 -4.7759,1.6223 -11.2485,1.6356 -4.0758,0.024 -7.5412,-0.1157 -7.701,-0.2758 z m -39.9226,-412.4405 1.6599,-11.9428 -5.7528,-20.0881 c -4.9429,-17.2602 -6.1622,-22.5335 -8.6624,-37.4611 l -2.9098,-17.3735 0.9882,-21.9254 c 0.7934,-17.6017 4.2666,-60.8105 6.4162,-79.821 l 0.3977,-3.5185 -1.9602,1.8626 c -1.0781,1.0244 -2.404,3.1835 -2.9463,4.7981 -0.5425,1.6144 -5.5997,11.7154 -11.2382,22.447 -5.6385,10.7314 -12.9753,25.3866 -16.3036,32.5671 l -6.0516,13.0556 0,9.7255 0,9.7253 4.766,13.2679 c 4.1367,11.5151 5.6289,14.7588 11.2985,24.5589 3.5929,6.2099 6.6573,11.5233 6.8096,11.8072 0.1519,0.2842 2.3992,8.6113 4.9931,18.5049 4.1559,15.8511 5.3811,19.5405 10.3122,31.0568 4.0897,9.5516 5.7204,12.7495 6.0596,11.8823 0.2552,-0.6525 1.2109,-6.5605 2.1239,-13.1286 z M 4226.3491,668.17626 c 1.6291,-1.0786 3.0104,-1.2716 9.1324,-1.275 l 7.2131,-0.024 4.1259,-3.8383 4.1258,-3.8383 4.861,0 4.8609,0 5.344,-5.1179 c 4.4725,-4.283 5.6908,-5.1194 7.4701,-5.1285 1.1718,-0.024 4.4225,-1.1492 7.2437,-2.5481 4.732,-2.3464 5.5243,-2.5382 10.5091,-2.5484 l 5.3912,-0.024 4.6843,-4.6845 c 4.4843,-4.484 4.6846,-4.8123 4.6846,-7.6766 l 0,-2.9923 6.4324,0 c 5.0545,0 7.0297,-0.2721 9.2216,-1.2705 5.0263,-2.2899 4.8173,-1.4844 4.8173,-18.5576 l 0,-15.2587 -1.6982,-2.0183 c -0.934,-1.1102 -4.3168,-3.7663 -7.5168,-5.903 -5.5238,-3.6876 -8.8603,-6.5854 -24.3215,-21.1245 -5.9892,-5.632 -6.8689,-6.2372 -9.0639,-6.2372 -2.3071,0 -3.0999,-0.6664 -15.5945,-13.1095 l -13.1638,-13.1095 -4.7833,-1.5308 c -2.631,-0.8419 -6.6547,-2.048 -8.9418,-2.6804 -4.1302,-1.142 -4.2569,-1.2468 -18.8719,-15.6222 -20.7801,-20.4395 -24.6594,-23.045 -34.289,-23.0296 -5.1533,0.024 -5.6368,0.1398 -11.7713,3.19 -3.5185,1.7498 -6.668,3.1854 -6.9986,3.1899 -1.4281,0.024 -12.4525,5.9714 -14.4644,7.808 -2.1754,1.9858 -2.2102,2.1 -2.4304,8.041 l -0.2242,6.0266 -2.8913,2.0212 c -14.2939,9.9909 -16.4451,13.3284 -11.4291,17.7324 5.4804,4.812 10.6096,14.8287 10.6096,20.7193 0,2.5301 1.5262,8.2247 2.5809,9.6296 1.1422,1.5219 2.537,9.1457 2.537,13.869 0,5.3968 0.6616,7.5296 3.8347,12.3597 0.9243,1.4074 3.0309,5.3107 4.6807,8.6745 2.8074,5.7238 2.9997,6.4409 2.9997,11.1931 0,3.7793 -0.4338,6.3864 -1.696,10.1972 -2.0873,6.3011 -5.0545,10.7246 -11.3626,16.9392 -3.5476,3.4951 -4.8538,5.2247 -4.8538,6.4274 0,2.1246 3.6595,5.706 8.326,8.1485 l 3.5281,1.8462 12.465,-0.2697 c 11.1821,-0.2417 12.9743,-0.1301 17.4113,1.0731 2.7204,0.7385 5.8921,1.3425 7.0485,1.3425 1.1883,0 3.1256,0.6953 4.4558,1.5994 1.2946,0.8795 2.6204,1.5992 2.9465,1.5992 0.3264,0 2.3676,1.5833 4.5363,3.5187 l 3.9432,3.5182 6.2133,-0.024 c 5.1242,0 6.5494,-0.2265 8.1322,-1.2752 z M 3734.3992,2047.43 c -1.7592,-0.2387 0.9757,-0.2987 6.0774,-0.1302 5.102,0.1687 9.3961,0.4095 9.5426,0.5365 0.4476,0.3881 -12.2114,0.058 -15.62,-0.4061 z m 132.1037,0 c -1.6988,-0.3577 -1.853,-0.4828 -0.6397,-0.5187 0.8795,-0.026 2.7508,0.1904 4.1581,0.4818 2.1331,0.4413 2.2396,0.5276 0.6397,0.5189 -1.0554,0 -2.9265,-0.2217 -4.1581,-0.482 z m 7.1895,0.2 c 0.6114,-0.1591 1.7631,-0.1663 2.5587,-0.024 0.7961,0.1519 0.2955,0.2842 -1.1119,0.2912 -1.4073,0.024 -2.0586,-0.1181 -1.4468,-0.2782 z m -172.2392,-1.0198 c -2.2868,-0.3545 -3.8012,-0.7705 -3.3652,-0.9243 0.4363,-0.1542 2.5978,0 4.8039,0.3447 2.2056,0.3434 9.0456,0.4726 15.1999,0.2873 6.1543,-0.1856 11.0459,-0.1953 10.8699,-0.024 -0.6777,0.6664 -23.5519,0.9282 -27.5085,0.3148 z m 59.4948,0.1615 c 3.6944,-0.3066 8.7313,-1.148 11.1931,-1.8698 6.2765,-1.8405 7.3729,-1.5855 1.6014,0.3721 -3.7814,1.2827 -6.357,1.6729 -12.1548,1.8412 l -7.3568,0.2145 6.7171,-0.5573 z m -221.6654,-0.6346 c -5.9239,-0.3704 -5.6872,-0.3991 3.1986,-0.3866 5.2777,0.024 11.1791,-0.1711 13.1143,-0.3982 3.5163,-0.4119 3.5158,-0.4116 -0.6396,0.4818 -4.351,0.9355 -5.279,0.9535 -15.6733,0.303 z m 320.3357,0.2121 c 0.6117,-0.1591 1.7633,-0.1663 2.5589,-0.024 0.7959,0.1543 0.2953,0.2839 -1.1121,0.2912 -1.4073,0.024 -2.0583,-0.1181 -1.4468,-0.2784 z m -377.7512,-0.624 c 0.4399,-0.1784 1.1596,-0.1784 1.5994,0 0.4397,0.1784 0.08,0.3227 -0.7997,0.3227 -0.8797,0 -1.2396,-0.1446 -0.7997,-0.3227 z m 16.01,-0.046 c 1.5047,-0.135 3.8077,-0.1326 5.1179,0 1.3102,0.1374 0.079,0.248 -2.7359,0.2456 -2.8146,0 -3.8865,-0.1157 -2.382,-0.2499 z m 123.2906,0.031 c -0.7038,-0.1325 -3.5826,-0.4663 -6.3972,-0.7404 -4.3156,-0.4199 -3.4929,-0.4919 5.2487,-0.4599 5.7015,0.024 9.7319,0.2073 8.9562,0.4151 -2.3584,0.63 -6.4529,1.0422 -7.8077,0.7852 z m 217.9869,-0.034 c 1.671,-0.1326 4.4062,-0.1326 6.0774,0 1.6713,0.1326 0.3037,0.2386 -3.0388,0.2386 -3.3425,0 -4.7098,-0.1085 -3.0386,-0.2386 z m -350.9045,-0.6312 c 1.1357,-0.1423 3.1507,-0.1447 4.478,0 1.3273,0.1373 0.3982,0.254 -2.0648,0.2571 -2.4628,0 -3.5489,-0.1108 -2.4132,-0.2521 z m 87.8168,-0.1784 -3.5185,-0.4312 3.1986,-0.041 c 1.7593,-0.024 3.9184,0.1904 4.7979,0.4717 1.9643,0.6288 0.6548,0.6288 -4.478,0 z m 12.3146,0.1976 c 0.6158,-0.1615 1.6235,-0.1615 2.2391,0 0.6158,0.1615 0.1109,0.2926 -1.1195,0.2926 -1.2314,0 -1.7352,-0.1301 -1.1196,-0.2926 z m 105.8627,0.024 c 0.4331,-0.1759 1.2969,-0.1856 1.9193,-0.024 0.6223,0.1615 0.268,0.3057 -0.7877,0.3187 -1.0555,0.024 -1.5647,-0.1205 -1.1316,-0.2948 z m 137.5534,-0.034 c 0.7918,-0.1519 2.087,-0.1519 2.8788,0 0.7918,0.1518 0.1446,0.2774 -1.4394,0.2774 -1.5833,0 -2.2309,-0.1253 -1.4394,-0.2774 z m -929.2033,-0.6464 c 0.9677,-0.1471 2.551,-0.1471 3.5187,0 0.9675,0.147 0.176,0.2665 -1.7592,0.2665 -1.9354,0 -2.727,-0.1205 -1.7595,-0.2665 z m 6.3973,0.024 c 0.6158,-0.1615 1.6235,-0.1615 2.2391,0 0.6158,0.1615 0.1132,0.2923 -1.1196,0.2923 -1.2314,0 -1.7351,-0.1301 -1.1195,-0.2923 z m 652.2017,-0.024 c 0.7915,-0.1519 2.087,-0.1519 2.8786,0 0.7917,0.1518 0.1446,0.2771 -1.4394,0.2771 -1.5833,0 -2.231,-0.1253 -1.4392,-0.2771 z m 32.6259,-0.024 c 1.1435,-0.1422 3.0148,-0.1422 4.1584,0 1.1434,0.1422 0.2073,0.2581 -2.0793,0.2581 -2.2871,0 -3.2225,-0.1157 -2.0791,-0.2581 z m 93.7289,0 c 0.9723,-0.1471 2.4116,-0.1422 3.1986,0.024 0.7869,0.1518 -0.024,0.2723 -1.7679,0.2673 -1.7595,0 -2.4033,-0.1278 -1.4307,-0.276 z m 129.8317,-0.6544 c -6.5288,-1.3594 -5.3353,-1.6954 1.8639,-0.5247 3.2981,0.536 6.8605,1.081 7.9159,1.2109 1.0557,0.1301 0.336,0.2465 -1.5994,0.26 -1.935,0.024 -5.6161,-0.4123 -8.1804,-0.9462 z m -1434.0836,-0.8607 c -2.1112,-0.6754 -2.9747,-1.0709 -1.9193,-0.879 1.0557,0.1928 4.9419,0.5297 8.6364,0.7508 4.4073,0.2636 6.1673,0.5618 5.1179,0.8674 -2.8579,0.8315 -7.9114,0.516 -11.835,-0.7392 z m 491.3102,0.6925 -6.3973,-0.3922 5.4378,-0.055 c 2.9906,-0.031 8.0285,0.1542 11.195,0.4143 l 5.7576,0.4707 -4.798,-0.024 c -2.6388,-0.024 -7.6766,-0.2 -11.1951,-0.4146 z m 40.4626,0.1879 c 0.7917,-0.1518 2.0872,-0.1518 2.8788,0 0.7917,0.1519 0.1446,0.2772 -1.4394,0.2772 -1.5833,0 -2.231,-0.1253 -1.4394,-0.2772 z m 26.8543,-0.024 c 1.1358,-0.1422 3.151,-0.1446 4.4783,0 1.327,0.1374 0.3979,0.2541 -2.0649,0.257 -2.463,0 -3.5491,-0.1109 -2.4134,-0.2519 z m 8.8107,-0.159 c 3.5985,-0.9475 12.7901,-2.0825 14.3937,-1.7771 1.0214,0.1952 0.5589,0.3396 -1.2794,0.4015 -1.5835,0.053 -4.606,0.5142 -6.7171,1.0239 -2.1113,0.5098 -4.846,0.9113 -6.0774,0.892 l -2.2391,-0.036 1.9193,-0.5052 z m 681.7814,0.1807 c 0.6114,-0.159 1.763,-0.1663 2.5589,-0.024 0.7956,0.1519 0.2953,0.284 -1.1121,0.291 -1.4076,0.024 -2.0586,-0.1181 -1.4468,-0.2782 z m 43.1745,-0.024 c 1.1357,-0.1422 3.1509,-0.1446 4.4783,0 1.3273,0.1374 0.3981,0.2543 -2.0649,0.2572 -2.463,0 -3.5488,-0.1109 -2.4134,-0.2519 z m 103.6501,-0.6016 c 0.4399,-0.1783 1.1596,-0.1783 1.5994,0 0.4399,0.1784 0.08,0.3225 -0.7997,0.3225 -0.8797,0 -1.2396,-0.1446 -0.7997,-0.3225 z m 3.8263,-0.6358 c 0.4331,-0.1759 1.2967,-0.1856 1.9192,-0.024 0.6224,0.1615 0.2681,0.3056 -0.7876,0.3187 -1.0555,0.024 -1.5648,-0.1206 -1.1316,-0.2951 z m 5.4587,-0.6792 c 0.9723,-0.147 2.4117,-0.1422 3.1986,0.024 0.7867,0.1519 -0.024,0.2721 -1.7682,0.2671 -1.7592,0 -2.403,-0.1278 -1.4304,-0.276 z m 21.4219,0.036 c 0.4399,-0.1784 1.1596,-0.1784 1.5995,0 0.4398,0.1783 0.079,0.3227 -0.7998,0.3227 -0.8797,0 -1.2395,-0.1446 -0.7997,-0.3227 z m -1436.3466,-0.8552 -3.1986,-0.4389 3.1986,-0.089 c 1.7592,-0.051 3.6303,0.188 4.1581,0.5293 1.1128,0.7192 1.0854,0.7192 -4.1581,0 z m 28.6278,0.1808 c 0.9675,-0.147 2.5508,-0.147 3.5185,0 0.9675,0.147 0.1759,0.2663 -1.7592,0.2663 -1.9352,0 -2.727,-0.1205 -1.7593,-0.2663 z m 595.7104,-1.1887 c 2.4432,-0.8535 4.7465,-1.5315 5.1176,-1.5067 1.1719,0.077 -6.9395,3.0883 -8.281,3.0728 -0.7038,-0.024 0.7197,-0.7127 3.1634,-1.5661 z m 800.152,1.1774 c 1.6594,-0.1302 4.5382,-0.1326 6.3972,0 1.859,0.1301 0.5014,0.2362 -3.0171,0.2386 -3.5185,0 -5.0396,-0.1037 -3.3801,-0.2362 z m -1471.5101,-1.0432 c -1.2316,-0.449 -3.3907,-1.4608 -4.798,-2.2485 -1.4074,-0.7874 -1.9832,-1.2268 -1.2794,-0.9761 0.7036,0.2504 2.8511,1.0108 4.772,1.6898 1.9212,0.6787 5.8077,1.4589 8.6364,1.7339 l 5.1434,0.4996 -5.1176,0.058 c -2.8149,0.031 -6.1254,-0.3085 -7.3568,-0.7576 z m 16.1529,0.4148 c 0.9678,-0.147 2.551,-0.147 3.5185,0 0.9677,0.147 0.176,0.2663 -1.7592,0.2663 -1.935,0 -2.7267,-0.1205 -1.7593,-0.2663 z m 17.2728,-0.6399 c 0.9674,-0.147 2.5507,-0.147 3.5184,0 0.9677,0.147 0.176,0.2666 -1.7592,0.2666 -1.9352,0 -2.7269,-0.1205 -1.7592,-0.2666 z"
     id="path4119"
     inkscape:connector-curvature="0" />
  <text
     xml:space="preserve"
     style="font-size:470.99343872px;font-style:normal;font-variant:normal;font-weight:normal;font-stretch:normal;line-height:125%;letter-spacing:0px;word-spacing:0px;fill:#000000;fill-opacity:1;stroke:none;display:inline;font-family:Arial;-inkscape-font-specification:Arial"
     x="74.766762"
     y="1460.0289"
     id="text3143"
     sodipodi:linespacing="125%"><tspan
       sodipodi:role="line"
       id="tspan3145"
       x="74.766762"
       y="1460.0289"
       style="font-size:506.64376831px">ConservationDrones.org</tspan></text>
  <text
     xml:space="preserve"
     style="font-size:274.43771362px;font-style:normal;font-variant:normal;font-weight:normal;font-stretch:normal;text-align:center;line-height:125%;letter-spacing:0px;word-spacing:0px;text-anchor:middle;fill:#000000;fill-opacity:1;stroke:none;font-family:Arial;-inkscape-font-specification:Arial"
     x="2818.8655"
     y="2398.6294"
     id="text2984"
     sodipodi:linespacing="125%"><tspan
       sodipodi:role="line"
       id="tspan2986"
       x="2818.8655"
       y="2398.6294"
       style="fill:#a7ac93">Australia | USA | Switzerland | UK</tspan></text>
</svg>
